<svg width="26" height="23" viewBox="0 0 26 23" fill="none" xmlns="http://www.w3.org/2000/svg">
<path d="M1 7C1 4.17157 1 2.75736 1.87868 1.87868C2.75736 1 4.17157 1 7 1H7.51472C8.74097 1 9.3541 1 9.90541 1.22836C10.4567 1.45672 10.8903 1.89027 11.7574 2.75736L12.7426 3.74264C13.6097 4.60973 14.0433 5.04328 14.5946 5.27164C15.1459 5.5 15.759 5.5 16.9853 5.5H19C21.8284 5.5 23.2426 5.5 24.1213 6.37868C25 7.25736 25 8.67157 25 11.5V16C25 18.8284 25 20.2426 24.1213 21.1213C23.2426 22 21.8284 22 19 22H7C4.17157 22 2.75736 22 1.87868 21.1213C1 20.2426 1 18.8284 1 16V7Z" stroke="#33363F" stroke-width="2"/>
</svg>
