<?xml version="1.0" encoding="utf-8"?>
<!-- Generator: Adobe Illustrator 28.3.0, SVG Export Plug-In . SVG Version: 6.00 Build 0)  -->
<svg version="1.1" id="Layer_1" xmlns="http://www.w3.org/2000/svg" xmlns:xlink="http://www.w3.org/1999/xlink" x="0px" y="0px"
	 viewBox="0 0 100 100" style="enable-background:new 0 0 100 100;" xml:space="preserve">
<style type="text/css">
	.st0{fill:#010101;}
</style>
<g>
	<circle class="st0" cx="54.33" cy="9.43" r="8.07"/>
	<path class="st0" d="M78.84,44.17c-2.24-0.39-11.22-1.94-11.72-2.11c-0.57-0.19,0,0-0.19-0.29c-0.19-0.29-8.03-16.82-8.79-17.67
		c-0.76-0.86-2.87-3.06-5.83-4.01c-2.96-0.95-5.92,0.57-5.92,0.57s-14.71,8.41-15.67,8.89c-0.96,0.48-1.82,2.2-1.82,2.2l-6.87,12.91
		c-0.56,0.71-0.9,1.6-0.9,2.58c0,2.29,1.86,4.16,4.16,4.16c1.96,0,3.6-1.36,4.04-3.19l6.41-12.11l4.01-2.24
		c-0.29,0.86-3.97,18.77-3.97,18.77l-3.73,21.21L19,89.55c-0.94,0.88-1.53,2.12-1.53,3.5c0,2.65,2.15,4.79,4.79,4.79
		c1.61,0,3.04-0.8,3.9-2.02c2.39-2.81,14.42-16.95,15.58-18.33c1.29-1.53,1.62-2.29,1.81-3.29c0.19-1,2.34-13.95,2.34-13.95
		l12.32,12.33v21.74h0.03c0.25,2.43,2.3,4.33,4.8,4.33c2.5,0,4.55-1.9,4.8-4.33h0.03c0,0,0-0.15,0-0.42c0-0.02,0-0.05,0-0.07
		c0-0.03,0-0.06,0-0.09c-0.02-3.31-0.12-19.8,0-23.54c0.14-4.15-1.34-5.06-1.67-5.44c-0.33-0.38-11.85-12.61-11.85-12.61l2.53-12.28
		c0,0,3.3,6.45,3.63,7.17c0.33,0.72,1.39,2.01,2.48,2.24c1.1,0.24,14.81,3.01,14.81,3.01l0.01-0.03c0.2,0.03,0.4,0.06,0.61,0.06
		c2.26,0,4.09-1.83,4.09-4.09C82.53,46.09,80.91,44.37,78.84,44.17z"/>
</g>
</svg>
